<svg data-v-fde0c5aa="" xmlns="http://www.w3.org/2000/svg" viewBox="0 0 300 300" class="font"><!----><defs data-v-fde0c5aa=""><!----></defs><rect data-v-fde0c5aa="" fill="#00242B" x="0" y="0" width="300px" height="300px" class="logo-background-square"></rect><defs data-v-fde0c5aa=""><!----></defs><g data-v-fde0c5aa="" id="3632d0d7-6031-43c1-8a4f-944a311302fc" fill="#7DE38D" transform="matrix(2.769385614788578,0,0,2.769385614788578,39.612286012278915,125.20015335140161)"><path d="M9.88 13.52L12.97 4.36L10.81 4.36L9.09 10.14L7.19 4.36L5.92 4.36L3.99 10.14L2.30 4.36L0.14 4.36L3.19 13.52L4.50 13.52L6.54 7.63L8.57 13.52ZM16.91 6.44C15.13 6.44 13.70 7.81 13.70 10.12C13.70 12.41 15.13 13.73 16.79 13.73C17.81 13.73 18.59 13.10 19.00 12.36L19.00 13.52L20.74 13.52L20.74 6.62L19.00 6.62L19.00 7.40C18.48 6.82 17.66 6.44 16.91 6.44ZM17.27 8.13C17.94 8.13 18.51 8.48 19.00 9.00L19.00 9.98C19.02 11.22 18.14 11.99 17.23 11.99C16.19 11.99 15.50 11.16 15.50 10.12C15.50 9.08 16.19 8.13 17.27 8.13ZM25.38 6.62L25.38 4.61L24.49 4.61C24.05 6.02 23.28 6.86 22.39 7.18L22.39 8.07L23.64 8.07L23.64 11.50C23.64 12.88 24.50 13.73 25.73 13.73C26.52 13.73 27.02 13.45 27.36 13.11L27.36 11.73C27.04 11.92 26.71 12.04 26.22 12.04C25.66 12.04 25.38 11.66 25.38 11.05L25.38 8.07L27.29 8.07L27.29 6.62ZM35.34 9.87C35.34 7.86 34.13 6.44 32.09 6.44C30.06 6.44 28.59 8.13 28.59 10.14C28.59 12.22 30.26 13.73 32.29 13.73C33.35 13.73 34.08 13.38 34.47 13.10L34.47 11.53C34.04 11.80 33.37 12.15 32.36 12.15C31.31 12.15 30.53 11.54 30.34 10.60L35.34 10.60ZM30.37 9.46C30.57 8.54 31.17 7.96 32.05 7.96C32.84 7.96 33.61 8.46 33.67 9.46ZM40.61 6.48C39.79 6.48 39.14 7.10 38.66 7.92L38.66 6.62L36.93 6.62L36.93 13.52L38.66 13.52L38.66 9.67C39.07 8.90 39.57 8.31 40.36 8.31C40.77 8.31 41.11 8.44 41.43 8.65L41.43 6.67C41.18 6.55 40.92 6.48 40.61 6.48ZM45.57 4.18C43.86 4.18 42.31 5.28 42.31 6.96C42.31 8.03 42.71 8.96 44.13 9.50L45.54 10.05C46.07 10.24 46.61 10.53 46.61 11.01C46.61 11.61 45.98 11.91 45.21 11.91C44.12 11.91 43.13 11.44 42.34 10.87L42.34 12.74C43.08 13.26 44.11 13.70 45.17 13.70C47.07 13.70 48.64 12.54 48.64 10.91C48.64 9.90 48.07 9.12 46.79 8.57L45.66 8.11C44.90 7.79 44.30 7.56 44.30 6.96C44.30 6.26 45.09 5.96 45.80 5.96C46.74 5.96 47.47 6.37 48.13 6.78L48.13 4.91C47.54 4.53 46.63 4.18 45.57 4.18ZM52.76 6.62L52.76 4.61L51.87 4.61C51.43 6.02 50.67 6.86 49.78 7.18L49.78 8.07L51.02 8.07L51.02 11.50C51.02 12.88 51.88 13.73 53.12 13.73C53.91 13.73 54.40 13.45 54.74 13.11L54.74 11.73C54.43 11.92 54.10 12.04 53.61 12.04C53.05 12.04 52.76 11.66 52.76 11.05L52.76 8.07L54.67 8.07L54.67 6.62ZM59.66 6.44C57.65 6.44 55.97 8.04 55.97 10.09C55.97 12.13 57.65 13.73 59.66 13.73C61.67 13.73 63.37 12.13 63.37 10.09C63.37 8.04 61.67 6.44 59.66 6.44ZM59.66 8.12C60.65 8.12 61.52 8.83 61.52 10.09C61.52 11.35 60.65 12.04 59.66 12.04C58.68 12.04 57.82 11.35 57.82 10.09C57.82 8.83 58.68 8.12 59.66 8.12ZM68.84 6.44C67.91 6.44 67.17 7.04 66.75 7.60L66.75 6.62L65.01 6.62L65.01 13.52L66.75 13.52L66.75 9.15C67.14 8.60 67.69 8.13 68.30 8.13C69.08 8.13 69.56 8.59 69.56 9.52L69.58 13.52L71.31 13.52L71.31 9.28C71.31 7.40 70.25 6.44 68.84 6.44ZM79.58 9.87C79.58 7.86 78.37 6.44 76.33 6.44C74.31 6.44 72.83 8.13 72.83 10.14C72.83 12.22 74.50 13.73 76.54 13.73C77.59 13.73 78.33 13.38 78.71 13.10L78.71 11.53C78.29 11.80 77.62 12.15 76.60 12.15C75.55 12.15 74.77 11.54 74.58 10.60L79.58 10.60ZM74.61 9.46C74.81 8.54 75.41 7.96 76.29 7.96C77.08 7.96 77.85 8.46 77.92 9.46Z"></path></g><!----><!----></svg>